<?xml version="1.0" encoding="utf-8"?>
<svg version="1.1" xmlns:xlink="http://www.w3.org/1999/xlink" width="300px" height="170px" xmlns="http://www.w3.org/2000/svg">
  <g transform="matrix(1 0 0 1 -137 -348 )">
    <path d="M 137 348  L 437 348  L 437 518  L 137 518  L 137 348  " fill-rule="nonzero" fill="#cccccc" stroke="none" />
    <path d="M 149 360  L 425 360  L 425 506  L 149 506  L 149 360  " fill-rule="nonzero" fill="#ffffff" stroke="none" />
    <path d="M 305.75 399  C 298.61 399  293 393.39  293 386.25  C 293 379.11  298.61 373.5  305.75 373.5  C 312.89 373.5  318.5 379.11  318.5 386.25  C 318.5 393.39  312.89 399  305.75 399  " fill-rule="nonzero" fill="#cccccc" stroke="none" />
    <path d="M 154 502  L 154 426.65  L 220.75 392.4  L 314.2 455.42  L 367.6 412.95  L 421 455.42  L 421 502  L 154 502  " fill-rule="nonzero" fill="#169bd5" stroke="none" />
  </g>
</svg>